<?xml version="1.0" encoding="UTF-8" standalone="no"?>
<!DOCTYPE svg PUBLIC "-//W3C//DTD SVG 1.1//EN" "http://www.w3.org/Graphics/SVG/1.1/DTD/svg11.dtd">
<svg width="100%" height="100%" viewBox="0 0 547 547" version="1.1" xmlns="http://www.w3.org/2000/svg" xmlns:xlink="http://www.w3.org/1999/xlink" xml:space="preserve" xmlns:serif="http://www.serif.com/" style="fill-rule:evenodd;clip-rule:evenodd;stroke-linejoin:round;stroke-miterlimit:1.41421;">
    <g transform="matrix(1,0,0,1,-46.7898,-131.807)">
        <g transform="matrix(1,0,0,1,0,88.9594)">
            <g id="V1">
                <g id="V11" serif:id="V1">
                    <g transform="matrix(1,0,0,1,11.5497,-117.731)">
                        <path d="M581.661,179.738C581.661,169.164 573.075,160.578 562.501,160.578L54.4,160.578C43.825,160.578 35.24,169.164 35.24,179.738L35.24,687.839C35.24,698.414 43.825,706.999 54.4,706.999L562.501,706.999C573.075,706.999 581.661,698.414 581.661,687.839L581.661,179.738Z" style="fill:rgb(140,91,173);"/>
                    </g>
                    <g id="Solid" transform="matrix(1,0,0,1,0.195571,0)">
                        <path d="M394.826,206.566L417.131,149.517L420.77,153.155L468.85,111.832L469.89,118.07L524.403,95.209C521.918,101.209 522.611,106.926 526.482,112.362L474.763,125.617L477.881,128.475L428.761,159.143L432.919,160.443L403.762,209.21C455.727,225.97 486.528,261.259 486.528,316.057C486.528,371.696 447.291,445.631 394.542,485.39C394.746,492.898 395.037,507.527 394.401,513.556C393.287,524.113 380.569,534.216 364.634,537.094C368.144,531.04 372.597,522.17 374.098,515.231C375.06,510.779 374.473,503.042 374.018,498.682C356.743,508.077 338.482,513.556 320,513.556C301.255,513.556 282.738,507.92 265.246,498.279C264.787,502.549 264.13,510.638 265.123,515.231C266.624,522.17 271.076,531.04 274.587,537.094C258.652,534.216 245.934,524.113 244.82,513.556C244.167,507.368 244.49,492.121 244.695,484.811C192.331,444.917 153.472,371.427 153.472,316.057C153.472,261.374 184.143,226.119 235.91,209.316L206.689,160.443L210.848,159.143L161.728,128.475L164.846,125.617L113.127,112.362C117.488,106.99 117.879,101.244 115.206,95.209L169.719,118.07L170.759,111.832L218.839,153.155L222.478,149.517L244.82,206.661L244.819,206.662C266.722,200.696 291.994,197.746 320,197.746C347.855,197.746 373.006,200.664 394.826,206.566Z" style="fill:white;"/>
                    </g>
                </g>
            </g>
        </g>
    </g>
</svg>
